<?xml version="1.0" encoding="UTF-8"?>
<svg id="Layer_2" data-name="Layer 2" xmlns="http://www.w3.org/2000/svg" xmlns:xlink="http://www.w3.org/1999/xlink" viewBox="0 0 22 22">
  <defs>
    <style>
      .cls-1 {
        fill: url(#linear-gradient);
        fill-rule: evenodd;
      }

      .cls-1, .cls-2 {
        stroke-width: 0px;
      }

      .cls-2 {
        fill: #fff;
      }
    </style>
    <linearGradient id="linear-gradient" x1="0" y1="11" x2="22" y2="11" gradientUnits="userSpaceOnUse">
      <stop offset="0" stop-color="#f50"/>
      <stop offset="1" stop-color="#e9007b"/>
    </linearGradient>
  </defs>
  <g id="Layer_1-2" data-name="Layer 1">
    <g>
      <rect class="cls-2" x="6.25" y="3" width="8.5" height="15.77"/>
      <path class="cls-1" d="M11,0c6.07,0,11,4.93,11,11s-4.93,11-11,11S0,17.07,0,11,4.93,0,11,0ZM12.77,8.2h-2.76l-1.3,6.14c-.05.24-.09.47-.11.68s-.04.4-.04.57c0,.4.05.75.16,1.04.11.29.25.52.43.71s.4.32.65.41c.25.09.52.13.8.13.25,0,.49-.04.74-.12.24-.08.46-.2.65-.36.19-.16.35-.37.48-.61.13-.25.2-.54.23-.88-.07.03-.14.06-.22.08-.08.02-.21.04-.39.04-.27,0-.46-.05-.59-.15-.12-.1-.19-.29-.19-.56,0-.1,0-.2.01-.3,0-.1.03-.21.06-.31l1.37-6.5ZM11.91,4.12c-.21,0-.41.04-.59.12s-.34.19-.48.33-.24.3-.32.49c-.08.18-.12.38-.12.59s.04.41.12.59c.08.18.19.34.32.48s.3.24.48.32.38.12.59.12.41-.04.59-.12c.18-.08.35-.18.49-.32s.25-.29.33-.48c.08-.18.12-.38.12-.59s-.04-.41-.12-.59c-.08-.18-.19-.35-.33-.49s-.3-.25-.49-.33c-.18-.08-.38-.12-.59-.12Z"/>
    </g>
  </g>
</svg>